<svg width="39" height="25" viewBox="0 0 39 25" fill="none" xmlns="http://www.w3.org/2000/svg">
<path d="M28.639 4.40067C28.455 4.23882 28.3107 4.13375 28.1971 4.00257C28.0483 3.82311 27.9081 3.8623 27.7377 3.96282C27.5537 4.06788 27.5628 4.20815 27.6111 4.37852C27.6679 4.58012 27.7031 4.78571 27.7513 4.98674C27.7076 5.00435 27.6639 5.02195 27.6201 5.03899C27.5764 4.9822 27.5327 4.92938 27.489 4.87259C27.3839 4.7238 27.301 4.55741 27.1738 4.43077C27.0074 4.25983 26.6837 4.33877 26.6047 4.54889C26.5218 4.76753 26.7013 5.21447 26.8938 5.36269C27.0074 5.45469 27.0778 5.60803 27.1698 5.73012C27.1346 5.75625 27.1 5.78294 27.0693 5.80906C26.9114 5.63415 26.7104 5.48082 26.6184 5.27921C26.4872 4.99469 26.3339 4.95494 26.08 5.0776C25.787 5.21731 25.896 5.49331 26.0101 5.60291C26.3038 5.89652 26.1504 6.21568 26.1941 6.53086C25.8966 6.49565 25.7256 6.28553 25.7654 5.98795C25.796 5.75568 25.6995 5.71649 25.503 5.67277C24.9079 5.5501 24.2775 6.19353 24.2553 6.78472C24.2508 6.89432 24.2553 7.00336 24.2553 7.11751C23.8788 7.05163 23.6602 7.17032 23.5506 7.48948C23.4807 7.70415 23.441 7.90064 23.1786 8.01025C22.9861 8.08919 22.9247 8.32543 23.0343 8.55316C23.0911 8.67128 23.1218 8.79849 23.1786 8.9558C22.7498 8.82462 22.6181 8.2641 22.0144 8.50943C21.4454 8.7417 21.3664 9.10459 21.3886 9.66057C20.9905 9.30165 20.7275 9.45045 20.4913 9.77472C20.4737 9.80084 20.3249 9.7662 20.2766 9.7219C20.1494 9.59923 20.0182 9.46805 19.9438 9.31472C19.7774 8.98193 19.4231 8.71047 19.5236 8.27773C19.5719 8.05909 19.6548 7.84896 19.7076 7.62975C19.7559 7.44121 19.7865 7.24869 19.8172 7.05617C19.8564 6.8063 19.8831 6.55301 19.9222 6.26395C19.3754 6.6098 18.8847 6.92044 18.3594 7.24869C18.1754 6.96872 18.0135 6.71032 17.8341 6.46499C17.5848 6.11914 17.3309 5.77328 17.0419 5.4581C16.9629 5.37462 16.7528 5.40528 16.6 5.3837C16.5915 5.52795 16.5211 5.69889 16.5784 5.8085C16.7057 6.0402 16.8936 6.23726 17.0509 6.44738C17.2656 6.73645 17.4757 7.02948 17.7381 7.39294C17.4053 7.44519 17.0992 7.51106 16.7886 7.5457C16.0401 7.62919 15.3268 7.47585 14.6175 7.23961C14.2671 7.12148 14.1404 7.24812 14.1359 7.62067C14.8929 8.06704 15.7289 8.0057 16.5347 8.0057C16.6046 8.13689 16.6574 8.25956 16.7272 8.36462C16.9243 8.64459 17.1429 8.91151 17.3269 9.20511C17.5325 9.52938 17.7074 9.87467 17.9045 10.2029C17.9613 10.2904 18.0448 10.4045 18.1322 10.4261C18.268 10.4568 18.452 10.4698 18.561 10.4C18.6178 10.3608 18.6002 10.12 18.5434 10.0059C18.4383 9.79175 18.281 9.60321 18.1493 9.39763C17.8471 8.92514 17.5496 8.45208 17.2298 7.93983C17.4576 7.8961 17.6279 7.86543 17.7989 7.82568C17.9868 7.77741 18.1226 7.79501 18.2322 7.99662C18.3588 8.23741 18.5121 8.4782 18.7047 8.67072C18.9369 8.8939 19.0812 9.12617 19.059 9.4584C19.046 9.72531 19.0414 9.99222 19.059 10.2591C19.1249 11.1649 19.2033 12.0713 19.2692 12.9118C18.6916 13.0083 18.1095 13.0913 17.5314 13.2048C16.5114 13.4104 15.7544 14.0715 15.1632 14.8461C14.7384 15.4021 14.4937 16.1199 14.266 16.794C13.9462 17.7395 14.0473 18.7328 14.0643 19.709C14.0729 20.1423 14.1166 20.5887 14.2438 21.0004C14.4891 21.7841 14.7776 22.5366 15.3291 23.1976C15.7362 23.6832 16.2042 24.0688 16.7164 24.3794C17.1412 24.6333 17.6705 24.765 18.1697 24.8349C19.1806 24.9706 20.2136 25.0802 21.1506 24.4981C21.5402 24.2528 21.9343 24.008 22.2756 23.7014C22.5647 23.4384 22.7788 23.0886 23.0679 22.7251V24.4277H24.8931V13.424H22.9759V15.1266C22.8623 14.9909 22.7742 14.912 22.722 14.816C22.3546 14.1856 21.8071 13.7438 21.1637 13.4286C20.8269 13.2622 20.4504 13.1702 20.0869 13.0521C19.912 12.9953 19.7848 12.9209 19.7763 12.7022C19.7678 12.3081 19.7326 11.91 19.7064 11.5159C19.7019 11.4415 19.7195 11.341 19.6803 11.2882C19.3169 10.8157 19.6144 10.2989 19.5577 9.80425C19.6934 9.92691 19.7763 10.0626 19.8728 10.1853C20.2709 10.6754 20.6872 11.1524 21.0722 11.6562C21.2034 11.8311 21.3829 11.8578 21.4794 11.7567C21.58 11.6471 21.869 11.5511 21.6413 11.2666C21.4266 10.9997 21.2778 10.68 21.1029 10.3869C21.1336 10.3608 21.1688 10.3341 21.1995 10.308C21.3397 10.4659 21.484 10.6232 21.6282 10.7765C22.0093 11.1922 22.3898 11.6079 22.7708 12.0196C22.8583 12.1162 22.9458 12.2474 23.0554 12.278C23.1956 12.3218 23.3791 12.3178 23.5148 12.265C23.5676 12.2434 23.6022 11.9804 23.5455 11.9106C23.3268 11.6352 23.0684 11.3938 22.8276 11.14C22.6436 10.9429 22.4642 10.7373 22.2671 10.5141C22.6436 10.4528 22.7794 10.2779 23.0071 9.62536C23.4665 9.55551 23.7249 9.25338 23.7119 8.77635C23.7073 8.64914 23.6375 8.52249 23.6113 8.39131C23.5983 8.33452 23.5937 8.26012 23.6199 8.2164C23.7028 8.08521 23.8039 7.96254 23.9174 7.80523C24.027 7.97163 24.1491 8.13348 24.2502 8.30442C24.4473 8.64573 24.7187 8.89504 25.0686 9.07904C25.3224 9.21022 25.5587 9.11879 25.6813 8.93933C25.8171 8.74681 25.5416 8.70763 25.432 8.61109C25.1651 8.36575 24.9022 8.12099 24.6398 7.8802C24.6574 7.85407 24.675 7.82738 24.6921 7.8058C25.0686 7.85805 25.2918 7.63486 25.5064 7.38556C25.6069 7.26743 25.7211 7.10956 25.8477 7.08798C26.2986 7.00506 26.5786 6.77279 26.6752 6.3179C26.9381 6.46215 27.4106 6.28723 27.5463 5.96353C27.6997 5.60462 27.8308 5.2457 28.146 4.98731C28.2465 4.89985 28.3079 4.7204 28.4129 4.68973C28.6407 4.6284 28.6537 4.49721 28.6407 4.40067H28.639ZM19.0403 8.07726C18.9131 7.8978 18.791 7.72743 18.6246 7.49516C18.8126 7.36795 19.0142 7.23677 19.2152 7.10558C19.1715 7.45143 19.4168 7.82795 19.0403 8.07726ZM19.6315 14.9801C19.7235 15.4526 19.8024 15.9035 19.9029 16.3453C20.0341 16.9274 20.1261 17.5317 20.3408 18.0871C20.6168 18.8049 20.7962 19.5756 21.3125 20.1923C21.4743 20.3848 21.6015 20.3019 21.6935 20.2144C21.7725 20.1355 21.8378 19.9475 21.7986 19.8601C21.6498 19.5233 21.4527 19.2076 21.2778 18.8839C21.2165 18.7742 21.1466 18.6652 21.1114 18.5471C20.8882 17.7373 20.6696 16.9274 20.4504 16.1176C20.3584 15.7848 20.2709 15.4481 20.1704 15.0761C20.7173 15.1635 21.1421 15.3782 21.5709 15.711C22.2143 16.2141 22.5732 16.8315 22.8009 17.5885C22.9889 18.2098 23.094 18.814 22.9935 19.4574C22.9543 19.6806 23.002 19.9345 22.9276 20.14C22.7396 20.6523 22.5465 21.1776 22.2711 21.6456C21.9383 22.2061 21.409 22.5252 20.7786 22.753C20.1176 22.9938 19.4566 23.0375 18.8092 22.8972C18.2532 22.7791 17.7239 22.5559 17.2684 22.1402C16.8437 21.7546 16.5637 21.3088 16.345 20.8181C16.2224 20.5467 16.1872 20.2315 16.148 19.9294C16.0299 19.0014 16.0037 18.0689 16.3144 17.1762C16.4677 16.7343 16.704 16.2613 17.0367 15.9421C17.5666 15.4344 18.2055 15.0539 18.9977 15.0579C19.1993 15.0579 19.4049 15.0096 19.6326 14.9795L19.6315 14.9801ZM22.3142 9.98995C22.1655 9.76677 21.9991 9.5521 21.8724 9.31585C21.8026 9.17615 21.8065 8.98761 22.0167 8.96602C22.0865 8.95751 22.2183 9.09324 22.2444 9.18467C22.3233 9.43398 22.3625 9.69237 22.4153 9.95076C22.3801 9.96383 22.3495 9.97689 22.3148 9.98995H22.3142ZM25.1679 7.17543C25.1418 7.2237 24.997 7.26289 24.9663 7.23677C24.8834 7.16691 24.7954 7.0664 24.7784 6.96531C24.7216 6.66319 24.6688 6.348 25.0061 6.16457C25.1066 6.37469 25.2423 6.57175 25.2991 6.7904C25.3253 6.90454 25.2333 7.05731 25.1679 7.176V7.17543ZM9.26615 13.4167V15.1062C9.18721 15.08 9.1043 15.0755 9.09124 15.0448C8.81524 14.3707 8.29447 13.9283 7.6817 13.587C7.31825 13.3854 6.93321 13.1492 6.53057 13.0879C5.62022 12.9481 4.68773 12.8647 3.79499 13.206C3.3702 13.3724 2.91531 13.5126 2.55185 13.7705C1.88627 14.239 1.33484 14.8427 0.985013 15.5781C0.608494 16.3788 0.328519 17.2239 0.333062 18.1257C0.337606 18.8521 0.310914 19.5875 0.415975 20.3053C0.512519 20.9749 0.761827 21.6228 0.945827 22.2793C0.950371 22.3009 0.967408 22.3145 0.981038 22.3321C1.20877 22.6388 1.45353 22.9273 1.65514 23.247C2.00099 23.79 2.53482 24.1222 3.05558 24.4203C3.47583 24.6611 3.99205 24.7792 4.48272 24.8406C5.44985 24.9587 6.44368 25.0899 7.34096 24.5299C7.76121 24.2715 8.18543 24.0177 8.55343 23.694C8.84647 23.4401 9.05262 23.0858 9.34565 22.7178V24.4379H11.1663V13.4167H9.26672H9.26615ZM8.86351 21.1418C8.46938 21.9164 7.89183 22.4639 7.02521 22.7569C6.34657 22.9801 5.67247 23.046 5.01598 22.8972C4.26748 22.7308 3.58486 22.4202 3.09874 21.7154C2.63477 21.0459 2.4201 20.3456 2.38943 19.5619C2.38091 19.3518 2.33719 19.1462 2.30198 18.8924C2.37637 18.3716 2.37637 17.7804 2.55583 17.2511C2.7438 16.6821 3.05047 16.1744 3.54909 15.7411C4.18798 15.1811 4.91886 15.0318 5.68496 15.0142C6.35452 14.9966 7.04168 15.0755 7.6198 15.5088C8.25869 15.9944 8.74027 16.568 9.01627 17.3471C9.21788 17.9207 9.2917 18.4982 9.31385 19.0803C9.336 19.7982 9.19118 20.5029 8.86294 21.1418H8.86351ZM36.5129 13.4212V15.0057C36.1716 14.6558 35.8303 14.2969 35.4844 13.942C35.029 13.4649 34.4208 13.2151 33.8165 13.093C33.1646 12.9618 32.4774 13.0186 31.8033 13.0055C31.6324 13.001 31.4444 13.0186 31.2911 13.0884C30.722 13.3468 30.0962 13.4996 29.6231 13.942C29.317 14.2305 28.9882 14.511 28.7344 14.8393C28.5066 15.1368 28.384 15.5134 28.1784 15.8331C27.7536 16.4987 27.7014 17.2733 27.6094 18.0042C27.4912 18.9452 27.4998 19.926 27.7843 20.8539C27.9722 21.4667 28.1386 22.1101 28.476 22.6354C28.7514 23.0733 29.0666 23.5236 29.5221 23.8519C30.0036 24.1977 30.4892 24.5174 31.0497 24.7185C31.6846 24.9417 32.3451 24.8888 33.0016 24.9201C33.925 24.9593 34.6911 24.5873 35.4174 24.0881C35.61 23.9569 35.7985 23.8036 35.9427 23.6241C36.175 23.3441 36.3715 23.029 36.6299 22.661V24.4203H38.4199V13.4212H36.5118H36.5129ZM36.2284 20.976C35.8564 21.8954 35.2084 22.5474 34.1715 22.8098C33.5763 22.9585 32.9942 23.0329 32.4206 22.9018C31.8079 22.766 31.2212 22.5428 30.7487 22.0703C30.1797 21.5059 29.86 20.8539 29.7725 20.0657C29.7242 19.6545 29.5885 19.2473 29.5885 18.8356C29.593 18.1268 29.7458 17.4306 30.0434 16.7786C30.3234 16.1704 30.7658 15.7365 31.374 15.3998C31.9476 15.0846 32.5473 15.0233 33.1509 15.0102C33.8029 14.9971 34.4685 15.1329 35.0023 15.5531C35.4311 15.8899 35.786 16.3016 36.0614 16.8008C36.3766 17.3653 36.4771 17.9428 36.5163 18.5647C36.5248 18.7311 36.6214 18.8929 36.6742 19.0457C36.5254 19.7113 36.4641 20.3808 36.2278 20.976H36.2284ZM33.9261 0.00170537C33.8256 0.0545202 33.6899 0.0806422 33.624 0.163556C33.344 0.517926 33.0771 0.889901 32.8142 1.26188C32.3326 1.94052 31.8601 2.62768 31.3785 3.3103C30.998 3.85321 30.6084 4.39556 30.2228 4.93393C30.1263 5.06965 30.0349 5.31044 29.9253 5.31896C29.5357 5.34509 29.505 5.60802 29.4743 5.88346C29.4613 6.00158 29.4698 6.1197 29.4658 6.23783C29.6016 6.18501 29.7719 6.16343 29.86 6.06689C30.044 5.86528 30.1797 5.62506 30.3415 5.40131C30.705 4.89361 31.077 4.39896 31.4313 3.88672C31.7857 3.36595 32.1054 2.81849 32.4689 2.30227C32.9283 1.65884 33.4144 1.03756 33.883 0.398668C33.9488 0.302125 33.9574 0.166396 33.9965 0.0528161C33.9704 0.0352112 33.9483 0.0176049 33.9267 0L33.9261 0.00170537ZM29.2688 2.89459C28.9536 2.93832 28.9013 3.15753 29.133 3.47669C29.2381 3.39378 29.3608 3.32336 29.4528 3.22284C29.505 3.16151 29.5096 3.05645 29.5357 2.96899C29.4482 2.94287 29.3562 2.88607 29.2688 2.89459ZM29.8861 2.23356C29.7765 2.31647 29.6322 2.3778 29.5624 2.48741C29.5186 2.5618 29.58 2.70605 29.5976 2.81566C29.6413 2.8202 29.685 2.8202 29.7288 2.82417C29.8253 2.66232 29.9173 2.50501 30.0133 2.34714C29.9696 2.30795 29.9304 2.27274 29.8861 2.23356Z" fill="white"/>
<path d="M28.6393 4.4009C28.4553 4.23904 28.3111 4.13398 28.1975 4.0028C28.0487 3.82334 27.9084 3.86253 27.738 3.96304C27.554 4.06811 27.5631 4.20838 27.6114 4.37875C27.6682 4.58035 27.7034 4.78593 27.7517 4.98697C27.7079 5.00458 27.6642 5.02218 27.6205 5.03922C27.5768 4.98243 27.533 4.92961 27.4893 4.87282C27.3842 4.72403 27.3013 4.55764 27.1741 4.43099C27.0077 4.26006 26.684 4.33899 26.6051 4.54912C26.5222 4.76776 26.7016 5.2147 26.8941 5.36292C27.0077 5.45492 27.0781 5.60825 27.1701 5.73035C27.1349 5.75648 27.1003 5.78317 27.0696 5.80929C26.9117 5.63438 26.7107 5.48104 26.6187 5.27944C26.4875 4.99492 26.3342 4.95517 26.0803 5.07783C25.7873 5.21754 25.8963 5.49354 26.0105 5.60314C26.3041 5.89675 26.1508 6.21591 26.1945 6.53109C25.8969 6.49588 25.726 6.28576 25.7657 5.98818C25.7964 5.75591 25.6998 5.71672 25.5034 5.67299C24.9082 5.55033 24.2778 6.19376 24.2557 6.78494C24.2511 6.89455 24.2557 7.00359 24.2557 7.11773C23.8792 7.05186 23.6605 7.17055 23.5509 7.48971C23.4811 7.70438 23.4413 7.90087 23.1789 8.01048C22.9864 8.08941 22.9251 8.32566 23.0347 8.55339C23.0915 8.67151 23.1221 8.79872 23.1789 8.95603C22.7502 8.82485 22.6184 8.26433 22.0147 8.50966C21.4457 8.74193 21.3668 9.10482 21.3889 9.6608C20.9908 9.30188 20.7279 9.45067 20.4916 9.77495C20.474 9.80107 20.3252 9.76643 20.277 9.72213C20.1497 9.59946 20.0186 9.46828 19.9442 9.31495C19.7778 8.98215 19.4234 8.7107 19.5239 8.27796C19.5722 8.05932 19.6551 7.84919 19.7079 7.62998C19.7562 7.44144 19.7869 7.24892 19.8175 7.0564C19.8567 6.80652 19.8834 6.55324 19.9226 6.26418C19.3757 6.61003 18.885 6.92067 18.3597 7.24892C18.1757 6.96894 18.0139 6.71055 17.8344 6.46522C17.5851 6.11937 17.3313 5.77351 17.0422 5.45833C16.9633 5.37485 16.7531 5.40551 16.6004 5.38393C16.5918 5.52818 16.5214 5.69912 16.5788 5.80872C16.706 6.04043 16.894 6.23749 17.0513 6.44761C17.2659 6.73667 17.4761 7.02971 17.7384 7.39317C17.4056 7.44541 17.0996 7.51129 16.7889 7.54593C16.0404 7.62941 15.3271 7.47608 14.6178 7.23983C14.2674 7.12171 14.1408 7.24835 14.1362 7.62089C14.8933 8.06727 15.7292 8.00593 16.5351 8.00593C16.6049 8.13712 16.6577 8.25978 16.7276 8.36485C16.9246 8.64482 17.1433 8.91174 17.3273 9.20534C17.5329 9.52961 17.7078 9.87489 17.9048 10.2031C17.9616 10.2906 18.0451 10.4047 18.1326 10.4263C18.2683 10.457 18.4523 10.4701 18.5613 10.4002C18.6181 10.361 18.6005 10.1202 18.5437 10.0061C18.4387 9.79198 18.2814 9.60344 18.1496 9.39786C17.8475 8.92536 17.5499 8.4523 17.2302 7.94006C17.4579 7.89633 17.6283 7.86566 17.7992 7.82591C17.9872 7.77764 18.1229 7.79524 18.2325 7.99685C18.3592 8.23764 18.5125 8.47843 18.705 8.67095C18.9373 8.89413 19.0815 9.1264 19.0594 9.45862C19.0463 9.72554 19.0418 9.99245 19.0594 10.2594C19.1253 11.1652 19.2036 12.0715 19.2695 12.912C18.6919 13.0086 18.1098 13.0915 17.5317 13.2051C16.5118 13.4106 15.7548 14.0717 15.1636 14.8463C14.7388 15.4023 14.494 16.1201 14.2663 16.7942C13.9466 17.7398 14.0476 18.733 14.0647 19.7092C14.0732 20.1425 14.1169 20.5889 14.2441 21.0006C14.4895 21.7844 14.778 22.5368 15.3294 23.1979C15.7366 23.6834 16.2045 24.069 16.7168 24.3797C17.1416 24.6335 17.6709 24.7653 18.17 24.8351C19.1809 24.9708 20.2139 25.0804 21.151 24.4984C21.5405 24.253 21.9347 24.0083 22.276 23.7016C22.565 23.4386 22.7791 23.0888 23.0682 22.7254V24.4279H24.8934V13.4243H22.9762V15.1268C22.8626 14.9911 22.7746 14.9122 22.7223 14.8162C22.3549 14.1858 21.8075 13.744 21.164 13.4288C20.8273 13.2624 20.4507 13.1704 20.0873 13.0523C19.9124 12.9955 19.7852 12.9211 19.7766 12.7025C19.7681 12.3084 19.7329 11.9103 19.7068 11.5161C19.7022 11.4417 19.7198 11.3412 19.6807 11.2884C19.3172 10.8159 19.6148 10.2991 19.558 9.80448C19.6937 9.92714 19.7766 10.0629 19.8732 10.1855C20.2713 10.6756 20.6875 11.1527 21.0726 11.6564C21.2038 11.8313 21.3832 11.858 21.4798 11.7569C21.5803 11.6473 21.8694 11.5513 21.6416 11.2668C21.427 10.9999 21.2782 10.6802 21.1033 10.3871C21.1339 10.361 21.1691 10.3343 21.1998 10.3082C21.3401 10.4661 21.4843 10.6234 21.6286 10.7767C22.0096 11.1924 22.3901 11.6081 22.7712 12.0199C22.8586 12.1164 22.9461 12.2476 23.0557 12.2783C23.196 12.322 23.3794 12.318 23.5151 12.2652C23.5679 12.2436 23.6026 11.9807 23.5458 11.9108C23.3272 11.6354 23.0688 11.394 22.828 11.1402C22.644 10.9431 22.4645 10.7375 22.2675 10.5144C22.644 10.453 22.7797 10.2781 23.0074 9.62559C23.4669 9.55574 23.7253 9.25361 23.7122 8.77657C23.7077 8.64936 23.6378 8.52272 23.6117 8.39154C23.5986 8.33475 23.5941 8.26035 23.6202 8.21662C23.7031 8.08544 23.8042 7.96277 23.9178 7.80546C24.0274 7.97186 24.1495 8.13371 24.2506 8.30465C24.4476 8.64596 24.7191 8.89527 25.0689 9.07927C25.3228 9.21045 25.559 9.11902 25.6817 8.93956C25.8174 8.74704 25.542 8.70786 25.4324 8.61131C25.1655 8.36598 24.9025 8.12122 24.6401 7.88043C24.6577 7.8543 24.6754 7.82761 24.6924 7.80603C25.0689 7.85828 25.2921 7.63509 25.5068 7.38578C25.6073 7.26766 25.7214 7.10979 25.8481 7.0882C26.299 7.00529 26.579 6.77302 26.6755 6.31813C26.9384 6.46238 27.4109 6.28746 27.5467 5.96376C27.7 5.60485 27.8312 5.24593 28.1464 4.98754C28.2469 4.90008 28.3082 4.72062 28.4133 4.68996C28.641 4.62862 28.6541 4.49744 28.641 4.4009H28.6393ZM19.0406 8.07749C18.9134 7.89803 18.7913 7.72766 18.6249 7.49539C18.8129 7.36818 19.0145 7.23699 19.2156 7.10581C19.1718 7.45166 19.4172 7.82818 19.0406 8.07749ZM19.6318 14.9803C19.7238 15.4528 19.8028 15.9037 19.9033 16.3456C20.0345 16.9277 20.1265 17.5319 20.3411 18.0873C20.6171 18.8051 20.7966 19.5758 21.3128 20.1925C21.4747 20.385 21.6019 20.3021 21.6939 20.2147C21.7728 20.1357 21.8381 19.9478 21.7989 19.8603C21.6501 19.5235 21.4531 19.2078 21.2782 18.8841C21.2168 18.7745 21.147 18.6654 21.1118 18.5473C20.8886 17.7375 20.6699 16.9277 20.4507 16.1178C20.3587 15.785 20.2713 15.4483 20.1708 15.0763C20.7176 15.1638 21.1424 15.3784 21.5712 15.7112C22.2146 16.2144 22.5735 16.8317 22.8013 17.5887C22.9893 18.21 23.0943 18.8142 22.9938 19.4577C22.9546 19.6808 23.0023 19.9347 22.9279 20.1403C22.7399 20.6525 22.5469 21.1778 22.2714 21.6458C21.9386 22.2063 21.4094 22.5255 20.779 22.7532C20.1179 22.994 19.4569 23.0377 18.8095 22.8974C18.2535 22.7793 17.7242 22.5561 17.2688 22.1404C16.844 21.7548 16.564 21.309 16.3454 20.8184C16.2227 20.5469 16.1875 20.2317 16.1483 19.9296C16.0302 19.0016 16.0041 18.0691 16.3147 17.1764C16.468 16.7346 16.7043 16.2615 17.0371 15.9424C17.5669 15.4346 18.2058 15.0542 18.998 15.0581C19.1996 15.0581 19.4052 15.0099 19.633 14.9798L19.6318 14.9803ZM22.3146 9.99018C22.1658 9.76699 21.9994 9.55233 21.8728 9.31608C21.8029 9.17638 21.8069 8.98783 22.017 8.96625C22.0869 8.95773 22.2186 9.09346 22.2447 9.1849C22.3237 9.4342 22.3629 9.6926 22.4157 9.95099C22.3805 9.96406 22.3498 9.97712 22.3152 9.99018H22.3146ZM25.1683 7.17566C25.1422 7.22393 24.9974 7.26312 24.9667 7.23699C24.8838 7.16714 24.7957 7.06662 24.7787 6.96554C24.7219 6.66341 24.6691 6.34823 25.0064 6.1648C25.107 6.37492 25.2427 6.57198 25.2995 6.79062C25.3256 6.90477 25.2336 7.05754 25.1683 7.17623V7.17566Z" fill="white"/>
<path d="M9.26615 13.4172V15.1067C9.18721 15.0805 9.1043 15.076 9.09124 15.0453C8.81524 14.3712 8.29447 13.9288 7.6817 13.5875C7.31825 13.3859 6.93321 13.1497 6.53057 13.0884C5.62022 12.9486 4.68773 12.8652 3.79499 13.2065C3.3702 13.3729 2.91531 13.5131 2.55185 13.771C1.88627 14.2395 1.33484 14.8432 0.985013 15.5786C0.608494 16.3793 0.328519 17.2244 0.333062 18.1262C0.337606 18.8525 0.310914 19.588 0.415975 20.3058C0.512519 20.9754 0.761827 21.6233 0.945827 22.2798C0.950371 22.3014 0.967408 22.315 0.981038 22.3326C1.20877 22.6393 1.45353 22.9278 1.65514 23.2475C2.00099 23.7904 2.53482 24.1227 3.05558 24.4208C3.47583 24.6616 3.99205 24.7797 4.48272 24.8411C5.44985 24.9592 6.44368 25.0904 7.34096 24.5304C7.76121 24.272 8.18543 24.0182 8.55343 23.6945C8.84647 23.4406 9.05262 23.0863 9.34565 22.7183V24.4384H11.1663V13.4172H9.26672H9.26615ZM8.86351 21.1423C8.46938 21.9169 7.89183 22.4644 7.02521 22.7574C6.34657 22.9806 5.67247 23.0465 5.01598 22.8977C4.26748 22.7313 3.58487 22.4207 3.09874 21.7159C2.63477 21.0464 2.4201 20.3461 2.38943 19.5624C2.38091 19.3523 2.33719 19.1467 2.30198 18.8929C2.37637 18.3721 2.37637 17.7809 2.55583 17.2516C2.7438 16.6826 3.05047 16.1749 3.54909 15.7416C4.18798 15.1816 4.91886 15.0323 5.68496 15.0147C6.35452 14.9971 7.04168 15.076 7.6198 15.5093C8.25869 15.9949 8.74027 16.5685 9.01627 17.3476C9.21788 17.9212 9.2917 18.4987 9.31385 19.0808C9.336 19.7987 9.19119 20.5034 8.86294 21.1423H8.86351Z" fill="white"/>
<path d="M36.5132 13.422V15.0064C36.1719 14.6566 35.8306 14.2977 35.4848 13.9428C35.0293 13.4657 34.4211 13.2158 33.8169 13.0937C33.1649 12.9626 32.4777 13.0194 31.8036 13.0063C31.6327 13.0017 31.4447 13.0194 31.2914 13.0892C30.7224 13.3476 30.0965 13.5004 29.6235 13.9428C29.3174 14.2313 28.9886 14.5118 28.7347 14.84C28.507 15.1376 28.3843 15.5141 28.1787 15.8339C27.7539 16.4994 27.7017 17.2741 27.6097 18.005C27.4916 18.946 27.5001 19.9267 27.7846 20.8547C27.9726 21.4674 28.139 22.1109 28.4763 22.6362C28.7517 23.074 29.0669 23.5244 29.5224 23.8526C30.004 24.1985 30.4895 24.5182 31.05 24.7193C31.6849 24.9424 32.3454 24.8896 33.0019 24.9209C33.9253 24.96 34.6914 24.5881 35.4178 24.0889C35.6103 23.9577 35.7988 23.8044 35.9431 23.6249C36.1753 23.3449 36.3718 23.0297 36.6302 22.6617V24.4211H38.4203V13.422H36.5121H36.5132ZM36.2287 20.9768C35.8568 21.8962 35.2088 22.5482 34.1718 22.8105C33.5766 22.9593 32.9945 23.0337 32.4209 22.9025C31.8082 22.7668 31.2215 22.5436 30.749 22.0711C30.18 21.5066 29.8603 20.8547 29.7728 20.0664C29.7246 19.6553 29.5888 19.2481 29.5888 18.8364C29.5934 18.1276 29.7461 17.4314 30.0437 16.7794C30.3237 16.1712 30.7661 15.7373 31.3743 15.4006C31.9479 15.0854 32.5476 15.024 33.1513 15.011C33.8032 14.9979 34.4688 15.1336 35.0026 15.5539C35.4314 15.8907 35.7863 16.3024 36.0618 16.8016C36.3769 17.3661 36.4775 17.9436 36.5167 18.5655C36.5252 18.7319 36.6217 18.8937 36.6745 19.0465C36.5257 19.7121 36.4644 20.3816 36.2282 20.9768H36.2287Z" fill="white"/>
<path d="M33.9941 0.0526558C33.9572 0.169076 33.9481 0.305372 33.88 0.399076C33.4154 1.03853 32.927 1.66038 32.4704 2.30495C32.1058 2.82004 31.7861 3.36636 31.4289 3.88656C31.0768 4.39937 30.702 4.89685 30.3397 5.40228C30.1795 5.6249 30.0427 5.86796 29.8592 6.069C29.7712 6.16554 29.6003 6.18599 29.4668 6.24051C29.4691 6.12238 29.4628 6.00312 29.4759 5.88557C29.5071 5.60787 29.5344 5.3472 29.9279 5.31994C30.0353 5.31256 30.1278 5.0712 30.2244 4.9349C30.61 4.39369 30.9967 3.85305 31.3801 3.30957C31.8605 2.62809 32.3347 1.94206 32.8163 1.26115C33.0792 0.889742 33.3439 0.518902 33.625 0.161692C33.6897 0.0799141 33.8243 0.0532235 33.9271 0.000976562C33.9498 0.0180136 33.9725 0.0350503 33.9952 0.0520873L33.9941 0.0526558Z" fill="white"/>
<path d="M29.1316 3.47582C28.8999 3.16006 28.9545 2.93801 29.2702 2.89599C29.3543 2.88463 29.4474 2.94256 29.536 2.96868C29.5093 3.05557 29.5059 3.16233 29.4508 3.22424C29.3616 3.32419 29.239 3.39404 29.1316 3.47582Z" fill="white"/>
<path d="M29.5957 2.81761C29.5809 2.70573 29.5173 2.56376 29.5633 2.48879C29.6303 2.37862 29.7757 2.31672 29.8882 2.23438C29.9296 2.27242 29.9711 2.31047 30.0125 2.34852C29.9188 2.50697 29.8245 2.66541 29.7308 2.82385C29.686 2.82158 29.6411 2.81988 29.5963 2.81761H29.5957Z" fill="white"/>
</svg>
