<svg width="18" height="18" viewBox="0 0 18 18" fill="none" xmlns="http://www.w3.org/2000/svg">
<path d="M14.9997 8.24925H16.4997C16.4997 4.40175 13.5949 1.5 9.74219 1.5V3C12.7887 3 14.9997 5.20725 14.9997 8.24925Z" fill="white"/>
<path d="M9.75021 5.99969C11.3275 5.99969 12.0002 6.67244 12.0002 8.24969H13.5002C13.5002 5.83094 12.169 4.49969 9.75021 4.49969V5.99969ZM12.3167 10.0819C12.1726 9.95096 11.9832 9.8811 11.7886 9.88711C11.5939 9.89313 11.4092 9.97455 11.2735 10.1142L9.47871 11.9599C9.04671 11.8774 8.17821 11.6067 7.28421 10.7149C6.39021 9.82019 6.11946 8.94944 6.03921 8.52044L7.88346 6.72494C8.02327 6.58929 8.10481 6.40456 8.11083 6.20985C8.11685 6.01513 8.04688 5.82572 7.91571 5.68169L5.14446 2.63444C5.01324 2.48996 4.83087 2.40232 4.63608 2.39014C4.44128 2.37795 4.24941 2.44218 4.10121 2.56919L2.47371 3.96494C2.34404 4.09508 2.26665 4.26828 2.25621 4.45169C2.24496 4.63919 2.03046 9.08069 5.47446 12.5262C8.47896 15.5299 12.2425 15.7497 13.279 15.7497C13.4305 15.7497 13.5235 15.7452 13.5482 15.7437C13.7316 15.7334 13.9047 15.6557 14.0342 15.5254L15.4292 13.8972C15.5563 13.7491 15.6207 13.5573 15.6086 13.3625C15.5966 13.1677 15.5091 12.9853 15.3647 12.8539L12.3167 10.0819Z" fill="white"/>
</svg>
