<svg width="20" height="20" viewBox="0 0 20 20" fill="none" xmlns="http://www.w3.org/2000/svg">
<path d="M2.08309 14.1667C1.50095 11.4194 1.50095 8.58061 2.08309 5.83333C2.15959 5.55434 2.30738 5.30006 2.51193 5.0955C2.71649 4.89095 2.97077 4.74316 3.24976 4.66667C7.7193 3.92622 12.2802 3.92622 16.7498 4.66667C17.0288 4.74316 17.283 4.89095 17.4876 5.0955C17.6921 5.30006 17.8399 5.55434 17.9164 5.83333C18.4986 8.58061 18.4986 11.4194 17.9164 14.1667C17.8399 14.4457 17.6921 14.6999 17.4876 14.9045C17.283 15.1091 17.0288 15.2568 16.7498 15.3333C12.2802 16.0739 7.71929 16.0739 3.24976 15.3333C2.97077 15.2568 2.71649 15.1091 2.51193 14.9045C2.30738 14.6999 2.15959 14.4457 2.08309 14.1667Z" stroke="#777777" stroke-width="2" stroke-linecap="round" stroke-linejoin="round"/>
<path d="M8.33301 12.5L12.4997 10L8.33301 7.5V12.5Z" stroke="#777777" stroke-width="2" stroke-linecap="round" stroke-linejoin="round"/>
</svg>
